<?xml version="1.0" encoding="UTF-8"?><svg id="Capa_2" xmlns="http://www.w3.org/2000/svg" xmlns:xlink="http://www.w3.org/1999/xlink" viewBox="0 0 1840.64 676.11"><defs><style>.cls-1{fill:#fff;}.cls-2{fill:#a0b900;}.cls-3{fill:#82c6e2;}.cls-4{fill:url(#Degradado_sin_nombre_47);}.cls-5{fill:url(#Degradado_sin_nombre_36);}.cls-6{fill:url(#Degradado_sin_nombre_47-3);}.cls-7{fill:url(#Degradado_sin_nombre_47-2);}</style><linearGradient id="Degradado_sin_nombre_47" x1="209.03" y1="111.8" x2="374.28" y2="111.8" gradientUnits="userSpaceOnUse"><stop offset="0" stop-color="#fff"/><stop offset="1" stop-color="#82c6e2"/></linearGradient><linearGradient id="Degradado_sin_nombre_47-2" x1="209.03" x2="374.28" xlink:href="#Degradado_sin_nombre_47"/><linearGradient id="Degradado_sin_nombre_47-3" x1="209.03" x2="374.28" xlink:href="#Degradado_sin_nombre_47"/><linearGradient id="Degradado_sin_nombre_36" x1="0" y1="384.23" x2="1840.64" y2="384.23" gradientUnits="userSpaceOnUse"><stop offset="0" stop-color="#fff"/><stop offset="1" stop-color="#a0b900"/></linearGradient></defs><g id="Layer_1"><g><path class="cls-1" d="M236.06,261.14v-24.02c0-3.96-3.21-7.17-7.17-7.18l-84.77-.19c-3.97,0-7.2,3.21-7.2,7.18v294.29c0,3.97,3.22,7.18,7.18,7.18h26.18c3.97,0,7.18-3.22,7.18-7.18v-152.28c0-3.97,3.22-7.18,7.18-7.18h33.32c3.97,0,7.18-3.22,7.18-7.18v-24c0-3.97-3.22-7.18-7.18-7.18h-33.32c-3.97,0-7.18-3.22-7.18-7.18v-50.7c0-3.97,3.22-7.18,7.18-7.18h44.22c3.97,0,7.18-3.22,7.18-7.18Z"/><g><path class="cls-1" d="M407.93,309.01l-24.43-18.14c-4.74-3.52-11.46-.14-11.46,5.77v29.92c0,4.19,1.98,8.13,5.34,10.62l21.96,16.3c4.75,3.53,11.5,.14,11.5-5.79v-32.92c0-2.27-1.08-4.41-2.9-5.77Z"/><path class="cls-1" d="M404.26,395.4l-21-15.59c-4.64-3.45-11.23-.13-11.23,5.65v145.76c0,3.97,3.22,7.18,7.18,7.18h24.43c3.97,0,7.18-3.22,7.18-7.18v-122.76c0-5.15-2.44-10-6.58-13.07Z"/></g><path class="cls-1" d="M512.24,593.44l11.46,18.97c1.88,3.11,5.78,4.32,9.1,2.85,55.65-24.68,78.06-62.01,78.06-112.38v-188.86c0-5.3-5.55-8.78-10.32-6.46l-14.44,7c-2.4,1.16-5.23,.88-7.38-.69-10.52-7.67-23.3-11.75-37.84-11.75-42.72,0-81.53,35.1-81.53,115.97s38.8,115.97,81.53,115.97c5.27,0,10.32-.5,15.12-1.52,5.91-1.26,10.84,4.71,8.12,10.1-7.98,15.88-22.9,28.96-48.72,40.55-3.92,1.76-5.39,6.57-3.17,10.25Zm32.79-96.01c-23.76,0-46.21-17.87-46.21-79.35s22.45-79.35,46.21-79.35c8.91,0,17,2.64,23.97,7.49,1.92,1.34,3.06,3.56,3.06,5.9v132.07c0,2.38-1.16,4.63-3.14,5.96-6.96,4.67-15.01,7.29-23.89,7.29Z"/><path class="cls-1" d="M806.54,538.41c3.97,0,7.18-3.22,7.18-7.18v-142.79c0-54.71-23.98-85.01-70.19-85.01-11.56,0-23.82,3.9-34.54,10.05-4.81,2.76-10.8-.65-10.8-6.19v-70.38c0-5.36-5.66-8.83-10.43-6.4l-24.43,12.4c-2.41,1.22-3.93,3.7-3.93,6.4v281.93c0,3.97,3.22,7.18,7.18,7.18h24.43c3.97,0,7.18-3.22,7.18-7.18v-164.56c0-1.71,.58-3.39,1.72-4.66,11.53-13,26.19-19.13,39.26-19.13,23.54,0,35.75,16.35,35.75,46v142.36c0,3.97,3.22,7.18,7.18,7.18h24.43Z"/><path class="cls-2" d="M1266.16,302.77c-43.16,0-82.4,39.67-82.4,118.37s37.06,121.42,86.76,121.42c17.29,0,35.7-5.51,48.7-12.33,3.34-1.75,4.7-5.83,3.16-9.27l-8.79-19.65c-1.7-3.81-6.27-5.37-9.95-3.39-7.68,4.13-18.42,7.8-28.54,7.8-20.54,0-43.41-14.72-49.99-58.39-.66-4.36,2.71-8.31,7.12-8.3l89.95,.19c3.56,0,6.58-2.61,7.13-6.13,12.24-78.93-14.26-130.32-63.15-130.32Zm19.5,99.84h-53.27c-4.39,0-7.74-3.91-7.11-8.26,5.06-35.15,20.56-53.43,40.01-53.43,15.55,0,28.73,11.63,27.55,54.76-.11,3.87-3.31,6.93-7.18,6.93Z"/><path class="cls-2" d="M1639.34,538.41c3.97,0,7.18-3.22,7.18-7.18v-142.79c0-54.71-23.98-85.01-70.19-85.01-18.04,0-37.7,9.88-50.6,22.52-2.96,2.9-7.82,2.7-10.45-.51-11.77-14.39-29.33-22.01-52.52-22.01-16.09,0-33.41,7.95-46.09,18.43-2.5,2.07-6.1,2.12-8.74,.24l-15.79-11.25c-4.76-3.39-11.35,.01-11.35,5.85v214.52c0,3.97,3.22,7.18,7.18,7.18h24.43c3.97,0,7.18-3.22,7.18-7.18v-166.75c0-1.94,.8-3.77,2.16-5.15,10.99-11.09,24.58-16.45,36.64-16.45,23.54,0,35.75,16.35,35.75,46v142.36c0,3.97,3.22,7.18,7.18,7.18h24.43c3.97,0,7.18-3.22,7.18-7.18v-166.58c0-1.8,.65-3.57,1.9-4.87,11.04-11.45,24.76-16.9,37.12-16.9,23.54,0,35.75,16.35,35.75,46v142.36c0,3.97,3.22,7.18,7.18,7.18h24.44Z"/><path class="cls-2" d="M1096.44,229.6v70.45c0,5.02-5.03,8.35-9.73,6.59-6.72-2.52-13.89-3.88-21.44-3.88-44.91,0-83.05,35.97-83.05,119.89s38.15,119.89,83.05,119.89c14.92,0,28.63-5,39.61-14.22,2.49-2.09,6.11-2.14,8.76-.26l10.25,7.29c4.76,3.38,11.34-.02,11.34-5.85V217.2c0-5.36-5.66-8.83-10.43-6.4l-24.43,12.4c-2.41,1.22-3.93,3.7-3.93,6.4Zm0,262.02c0,2.24-1.03,4.37-2.81,5.72-7.33,5.53-16.11,8.59-25.74,8.59-23.76,0-46.21-18.31-46.21-83.27s22.45-83.27,46.21-83.27c9.66,0,18.47,3.09,25.82,8.8,1.74,1.35,2.74,3.46,2.74,5.66v137.77Z"/><path class="cls-1" d="M912.98,446.86v-96.14c0-3.97,3.22-7.18,7.18-7.18h22.69c3.97,0,7.18-3.22,7.18-7.18v-22.26c0-3.97-3.22-7.18-7.18-7.18h-22.69c-3.97,0-7.18-3.22-7.18-7.18v-72.68c0-5.36-5.66-8.83-10.43-6.4l-24.44,12.41c-2.41,1.22-3.93,3.7-3.93,6.4v60.28c0,3.97-3.22,7.18-7.18,7.18h-16.96c-3.97,0-7.18,3.22-7.18,7.18v22.26c0,3.97,3.22,7.18,7.18,7.18h16.96c3.97,0,7.18,3.22,7.18,7.18v95.71c0,59.5,23.69,90.41,70.89,95.34,4.28,.45,8.03-2.84,8.03-7.14v-25.22c0-3.28-2.2-6.19-5.39-6.95-25.54-6.11-34.72-22.91-34.72-55.58Z"/><path class="cls-1" d="M284.58,239.47v291.76c0,3.97,3.22,7.18,7.18,7.18h24.43c3.97,0,7.18-3.22,7.18-7.18V257.61c0-2.27-1.08-4.41-2.9-5.77l-24.43-18.14c-4.74-3.52-11.46-.13-11.46,5.77Z"/><g><path class="cls-4" d="M376.92,131.25h25.54c4.84,0,9.07-3.29,10.25-7.99l4.48-17.75c1.69-6.68-3.36-13.17-10.25-13.17h-25.54c-4.84,0-9.07,3.29-10.25,7.99l-4.48,17.75c-1.69,6.68,3.36,13.17,10.25,13.17Z"/><path class="cls-7" d="M283.71,131.25h24.52c4.84,0,9.07-3.29,10.25-7.99l4.48-17.75c1.69-6.68-3.36-13.17-10.25-13.17h-24.52c-4.84,0-9.07,3.29-10.25,7.99l-4.48,17.75c-1.69,6.68,3.36,13.17,10.25,13.17Z"/><path class="cls-6" d="M190.49,131.25h24.52c4.84,0,9.07-3.29,10.25-7.99l4.48-17.75c1.69-6.68-3.36-13.17-10.25-13.17h-24.52c-4.84,0-9.07,3.29-10.25,7.99l-4.48,17.75c-1.69,6.68,3.36,13.17,10.25,13.17Z"/></g><g><g><path class="cls-3" d="M516.03,111.79c-6.26,.67-10.84,6.22-10.32,12.49l2.06,24.93,7.6,91.87c.18,2.23,2.57,3.56,4.56,2.55L834.9,83.53c3.12-1.58,1.71-6.31-1.76-5.93l-317.11,34.19Z"/><path class="cls-3" d="M399.96,5.19l73.56,54.6c4.08,3.03,8.99,4.74,14.07,4.89l320.63,9.79c3.58,.11,4.1-5.12,.57-5.71L402.16,.05c-2.98-.5-4.62,3.35-2.19,5.15Z"/></g><path class="cls-1" d="M460.76,130.18l22.11-14.64c5.37-3.56,12.59,0,13.05,6.42l1.25,17.38c.38,5.27-4.13,9.58-9.38,8.96l-23.35-2.75c-7.79-.92-10.21-11.05-3.66-15.38Z"/><path class="cls-1" d="M680.19,78.12l-195.58-2.06c-5.62-.06-10.89,2.73-13.99,7.42l-8.63,22.62c-2,5.25,3.94,9.95,8.59,6.8l6.61-4.48c4.44-3,9.57-4.82,14.91-5.29l188.42-16.32c5.52-.48,5.21-8.64-.33-8.7Z"/></g><path class="cls-5" d="M1834.21,306.91h-28.02c-2.93,0-5.5,1.99-6.22,4.83l-28.85,113.1-4.84,22.12c-1.37,6.26-10.3,6.26-11.66,0l-4.83-22.17c-.02-.11-.05-.22-.08-.33l-31.35-112.85c-.77-2.78-3.3-4.7-6.19-4.7h-27.87c-4.31,0-7.4,4.17-6.14,8.29l56.86,186.54c9.46,31.09,3.74,114.89-190.72,132.31-28.58,2.05-63.53,3.15-107.27,3.15H101.43c-34.54,0-62.53-28-62.53-62.53V193.79c0-34.54,28-62.53,62.53-62.53h24.26c4.84,0,9.07-3.29,10.25-7.99l4.48-17.75c1.69-6.68-3.36-13.17-10.25-13.17h-28.74C45.41,92.36,0,137.77,0,193.79v380.89c0,56.02,45.41,101.43,101.43,101.43H1401.38c112.52,0,194.39-2.35,255.56-22.12,12.21-4.34,24.43-9.53,37.4-15.72,.27-.14,.53-.28,.8-.42,22.05-11.94,40.83-27.55,57.07-47.99,1.47-1.96,2.91-3.92,4.27-5.9,11.02-16.4,19.11-36,25.27-54.72,1.37-4.63,2.76-9.55,4.2-14.81l7.16-26.22h0s47.3-173.18,47.3-173.18c1.12-4.09-1.96-8.11-6.19-8.11Z"/></g></g></svg>